<svg width="146" height="60" viewBox="0 0 146 60" fill="none" xmlns="http://www.w3.org/2000/svg">
<path d="M55.1327 0.576874C62.253 3.14054 69.7909 7.78332 76.4019 14.1036C84.0656 21.4302 87.3958 28.9952 89.0477 36.0879C89.6423 28.7688 87.252 20.3153 79.2757 12.6898C72.0491 5.78102 63.123 1.54231 55.1327 0.576874Z" fill="#E2F1F4"/>
<path fill-rule="evenodd" clip-rule="evenodd" d="M97.1826 9.02552C98.694 15.7435 86.9144 23.3282 70.8721 25.9665C62.4775 27.3471 54.579 27.0996 48.7396 25.5873C53.8207 26.0045 59.917 25.7419 66.3396 24.6856C82.3819 22.0474 94.3852 15.4569 93.1497 9.96537C92.0277 4.97808 83.1242 1.19211 69.6376 5.45787C69.4763 5.35042 69.3014 5.24689 69.1146 5.14972C69.0972 5.1407 69.0798 5.13177 69.0625 5.12295C83.533 -1.85035 95.7255 2.54863 97.1826 9.02552Z" fill="#3F9CD9"/>
<path d="M65.1393 8.66003C53.2462 16.9417 52.112 31.1984 53.4914 37.6192C55.3305 26.4811 57.6295 19.9292 65.1393 14.1636C65.1393 14.1636 76.9404 18.6189 86.7492 37.6192C83.0709 18.7499 65.7523 8.23316 65.1393 8.66003Z" fill="#9CA2F4"/>
<path d="M5.59331 43.5963C6.66001 43.5963 7.64396 43.8243 8.54514 44.2803C9.44632 44.7364 10.1636 45.3496 10.6969 46.1201C11.2303 46.8906 11.497 47.724 11.497 48.6203C11.497 49.5166 11.2303 50.35 10.6969 51.1205C10.1636 51.891 9.44632 52.5042 8.54514 52.9602C7.64396 53.4005 6.66001 53.6207 5.59331 53.6207H2.36561V59.2815H0.462097V43.5963H5.59331ZM5.59331 52.0404C6.31058 52.0404 6.97267 51.891 7.57959 51.5922C8.20489 51.2777 8.69227 50.861 9.04171 50.3421C9.40953 49.8075 9.59345 49.2336 9.59345 48.6203C9.59345 48.007 9.40953 47.441 9.04171 46.9221C8.69227 46.4031 8.20489 45.9943 7.57959 45.6955C6.97267 45.3811 6.31058 45.2238 5.59331 45.2238H2.36561V52.0404H5.59331Z" fill="#E2F1F4"/>
<path d="M26.2626 43.5963V59.2815H24.4142V52.2526H15.8622V59.2815H13.9863V43.5963H15.8622V50.6488H24.4142V43.5963H26.2626Z" fill="#E2F1F4"/>
<path d="M39.0462 53.5027H32.5908L30.2183 59.2815H28.2044L34.6322 43.6199H37.0047L43.4325 59.2815H41.4187L39.0462 53.5027ZM38.4393 51.9932L35.8185 45.5776L33.1977 51.9932H38.4393Z" fill="#E2F1F4"/>
<path d="M49.9791 53.6443L55.9104 59.2815H53.3723L47.4411 53.6443H47.2756V59.2815H45.3721V43.6199H50.0619C51.1286 43.6199 52.1033 43.8479 52.9861 44.3039C53.8873 44.7442 54.5954 45.3496 55.1103 46.1201C55.6437 46.8906 55.9104 47.7319 55.9104 48.6439C55.9104 49.5559 55.6437 50.3972 55.1103 51.1677C54.5954 51.9224 53.8873 52.5278 52.9861 52.9838C52.1033 53.4241 51.1286 53.6443 50.0619 53.6443H49.9791ZM47.2756 45.2238V52.0404H50.0619C50.7791 52.0404 51.4412 51.891 52.0481 51.5922C52.6551 51.2777 53.1332 50.861 53.4827 50.3421C53.8505 49.8232 54.0344 49.2571 54.0344 48.6439C54.0344 48.0306 53.8505 47.4646 53.4827 46.9456C53.1332 46.411 52.6551 45.9943 52.0481 45.6955C51.4412 45.3811 50.7791 45.2238 50.0619 45.2238H47.2756Z" fill="#E2F1F4"/>
<path d="M76.1229 43.5963V59.2343H74.2194V45.8842L68.0399 53.5263H66.4398L60.2603 45.8842V59.2815H58.3844V43.5963H60.7017L67.2398 51.6866L73.778 43.5963H76.1229Z" fill="#E2F1F4"/>
<path d="M89.452 53.5027H82.9966L80.6241 59.2815H78.6103L85.0381 43.6199H87.4106L93.8384 59.2815H91.8245L89.452 53.5027ZM88.8451 51.9932L86.2243 45.5776L83.6036 51.9932H88.8451Z" fill="#E2F1F4"/>
<path d="M110.612 43.5963V59.2815H108.736V43.5963H110.612Z" fill="#E2F1F4"/>
<path d="M126.75 43.5963V59.2815H124.515L115.274 46.6154V59.2815H113.37V43.5963H115.356L124.874 56.6162V43.5963H126.75Z" fill="#E2F1F4"/>
<path d="M138.501 59.423C136.809 59.423 135.255 59.0692 133.839 58.3616C132.423 57.654 131.301 56.6948 130.473 55.484C129.645 54.2732 129.232 52.9445 129.232 51.4979C129.232 50.0512 129.645 48.7225 130.473 47.5117C131.301 46.2852 132.423 45.3182 133.839 44.6106C135.273 43.8872 136.827 43.5256 138.501 43.5256C139.862 43.5256 141.158 43.7693 142.391 44.2568C143.623 44.7285 144.671 45.4125 145.536 46.3088L144.101 47.3466C143.402 46.6547 142.556 46.1201 141.563 45.7427C140.588 45.3496 139.568 45.1531 138.501 45.1531C137.177 45.1531 135.945 45.444 134.804 46.0258C133.682 46.5918 132.79 47.3623 132.128 48.3373C131.466 49.3122 131.135 50.3657 131.135 51.4979C131.135 52.63 131.466 53.6836 132.128 54.6585C132.79 55.6177 133.682 56.3803 134.804 56.9464C135.945 57.5125 137.177 57.7955 138.501 57.7955C139.568 57.7955 140.588 57.6068 141.563 57.2294C142.556 56.8363 143.402 56.2938 144.101 55.602L145.536 56.6398C144.671 57.5203 143.623 58.2044 142.391 58.6918C141.158 59.1793 139.862 59.423 138.501 59.423Z" fill="#E2F1F4"/>
</svg>
